<svg xmlns="http://www.w3.org/2000/svg" xmlns:cc="http://web.resource.org/cc/" xmlns:ns1="http://sozi.baierouge.fr" xmlns:svg="http://www.w3.org/2000/svg" xmlns:xlink="http://www.w3.org/1999/xlink" id="Layer_1" x="0" y="0" enable-background="new 0 0 800 600" version="1.1" viewBox="0 0 800 600" xml:space="preserve"><line x1="627.34" x2="719.23" y1="600.67" y2="-.223" fill="none" stroke="#000" stroke-width="2"/><line x1="94.131" x2="152.9" y1="-1.877" y2="602.32" fill="none" stroke="#000" stroke-width="2"/><path fill="#5FABB0" stroke="#000" stroke-width="2" d="m520.21 546.83c9.013 20.638 26.043 33.123 38.037 27.885 11.995-5.237 48.84-65.822 5.401-46.854s-29.919 2.74-38.04-27.884-14.41 26.2-5.4 46.84z"/><path fill="#5FABB0" stroke="#000" stroke-width="2" d="m305.44 542.32c18.793-8.207 30.302-23.395 25.704-33.922-4.597-10.527-65.165-55.151-42.353-4.203 22.813 50.949-30.303 23.396-25.703 33.924 4.6 10.52 23.56 12.4 42.35 4.2z"/><path fill="#5FABB0" stroke="#000" stroke-width="2" d="m106.57 287.03c0 11.835 20.299-16.376 57.143 21.429s57.143-9.594 57.143-21.429c0-11.834-25.583-21.428-57.143-21.428-31.56 0.01-57.14 9.6-57.14 21.43z"/><path fill="#5FABB0" stroke="#000" stroke-width="2" d="m705.82 320.34c0-11.836-20.299 16.375-57.143-21.43s-57.144 9.594-57.144 21.43c0 11.834 25.583 21.428 57.144 21.428 31.55 0 57.14-9.6 57.14-21.43z"/><path fill="#76D5C5" stroke="#000" stroke-width="5" d="m621.78 498.78c0 6.76-6.369 12.24-14.226 12.24h-395.91c-7.856 0-14.225-5.48-14.225-12.24v-446.94c0-6.759 6.369-12.24 14.225-12.24h395.92c7.856 0 14.226 5.48 14.226 12.24v446.94z"/><path fill="#D0FFDB" stroke="#000" d="m582.29 282.22c0 6.627-6.554 12-14.639 12h-311.06c-8.085 0-14.639-5.373-14.639-12v-181.04c0-6.627 6.554-12 14.639-12h311.06c8.085 0 14.639 5.373 14.639 12v181.04z"/><ellipse cx="517.66" cy="197.16" stroke="#000" stroke-width="6" rx="8.195" ry="8.823"/><ellipse cx="311.44" cy="191.7" stroke="#000" stroke-width="6" rx="8.139" ry="7.497"/><ellipse cx="308.34" cy="188.34" fill="#fff" rx="5.042" ry="5.462"/><ellipse cx="516.06" cy="193.8" fill="#fff" rx="5.042" ry="5.462"/><path fill="#7EDE6C" stroke="#000" d="m444.27 233.72c-3.448 14.848-14.514 27.731-32.417 27.731-17.904 0-27.039-13.579-32.418-27.731-13.893-36.555 14.514-27.731 32.418-27.731 17.91-0.01 40.91-8.83 32.42 27.73z"/><path fill="#B8EAAE" d="m435.98 245.76c0 6.729-10.927 12.185-24.402 12.185-13.478 0-24.404-5.456-24.404-12.185 0-12.518 5.628-11.263 24.404-12.185 18.22-0.9 24.4-0.9 24.4 12.18z"/><path fill="#fff" stroke="#000" d="m446.09 214.39c0 5.105-3.735 9.244-8.344 9.244h-51.579c-4.608 0-8.344-4.139-8.344-9.244s3.736-9.244 8.344-9.244h51.579c4.61-0.01 8.34 4.13 8.34 9.24z"/><path fill="#fff" stroke="#fff" d="m261.37 94.879c14.205 1.851 6.949 5.92 5.865 11.265l-2.254 11.118c-1.084 5.345-5.466 8.967-9.79 8.091-4.323-0.878-12.405 12.624-5.864-11.266l2.254-11.118c1.07-5.335 5.45-8.958 9.78-8.081z"/><rect width="166.97" height="36.975" x="248.68" y="306.82" fill="#175785" stroke="#000" stroke-width="3"/><ellipse cx="540.43" cy="325.31" fill="#175785" stroke="#000" stroke-width="3" rx="24.369" ry="25.235"/><path fill="#5D9FCF" d="m557.82 310.31c0.429 6.056-2.104 2.35-4.665 1.216l-5.331-2.354c-2.563-1.132-4.629-3.514-4.616-5.318 0.014-1.804-6.942-7.029 4.664-1.217l5.333 2.355c2.57 1.12 4.64 3.5 4.62 5.31z"/><path fill="none" d="m277.65 479.17c0-50.628 29.316-91.596 65.546-91.596"/><rect width="32.773" height="85.764" x="277.65" y="359.34" fill="#F1F207" stroke="#000" stroke-width="4"/><rect width="32.773" height="85.764" x="277.65" y="359.34" fill="#F1F207" stroke="#000" stroke-width="3" transform="matrix(-.0089 1 -1 -.0089 698.87 111.8)"/><rect width="29.321" height="77.311" x="279.38" y="363.55" fill="#F1F207"/><path fill="#175785" stroke="#000" stroke-width="3" d="m287.86 467.77c0 2.835-2.299 5.134-5.135 5.134h-19.142c-2.836 0-5.135-2.299-5.135-5.134 0-2.836 2.299-5.135 5.135-5.135h19.142c2.84-0.01 5.14 2.29 5.14 5.13z"/><path fill="#175785" stroke="#000" stroke-width="2" d="m324.71 468.07c0 2.347-2.334 4.249-5.214 4.249h-18.143c-2.88 0-5.214-1.902-5.214-4.249s2.334-4.249 5.214-4.249h18.143c2.87 0 5.21 1.91 5.21 4.25z"/><ellipse cx="509.18" cy="456.75" fill="#D51E59" stroke="#000" stroke-width="3" rx="40.336" ry="42.856"/><polygon fill="#01CEF1" stroke="#000" stroke-width="3" points="459.54 399.03 480.1 359.34 500.66 399.03"/><ellipse cx="549.52" cy="394.29" fill="#00FF24" stroke="#000" rx="17.227" ry="19.597"/><path fill="#FF7AA5" d="m473.07 444.5c-2.431-3.01 2.273-10.838 10.502-17.484 8.232-6.646 16.875-9.595 19.305-6.585 4.521 5.599 0.63 7.813-10.504 17.484-10.82 9.39-14.59 12.43-19.31 6.58z"/><metadata/></svg>